<!-- Generator: Adobe Illustrator 21.0.0, SVG Export Plug-In  -->
<svg version="1.1"
	 xmlns="http://www.w3.org/2000/svg" xmlns:xlink="http://www.w3.org/1999/xlink" xmlns:a="http://ns.adobe.com/AdobeSVGViewerExtensions/3.0/"
	 x="0px" y="0px" width="558.028px" height="241.633px" viewBox="0 0 558.028 241.633"
	 style="enable-background:new 0 0 558.028 241.633;" xml:space="preserve">
<defs>
</defs>
<g>
	<g>
		<path style="fill:#0058A2;" d="M58.369,194.775c51.039,28.508,130.892,46.858,220.644,46.858
			c154.097,0,279.016-54.087,279.016-120.819C558.028,54.092,433.109,0,279.013,0C124.917,0,0,54.092,0,120.814
			c0,14.601,6.157,28.76,17.111,41.712C28.287,175.537,44.2,186.638,58.369,194.775z"/>
		<path style="fill:#FFFFFF;" d="M71.84,194.74c48.472,27.37,123.263,44.919,207.173,44.919
			c146.126,0,264.581-53.211,264.581-118.844c0-65.629-118.455-118.836-264.581-118.836c-146.122,0-264.579,53.207-264.579,118.836
			c0,11.157,3.597,22.2,9.994,32.431C35.787,172.787,57.059,186.526,71.84,194.74z"/>
		<path style="fill:#0058A2;" d="M108.719,194.612c44.08,24.534,109.736,40.095,183.058,40.095
			c132.729,0,240.323-50.984,240.323-113.892c0-62.893-107.594-113.883-240.323-113.883c-132.72,0-240.316,50.99-240.316,113.883
			c0,1.173,0.024,2.261,0.102,3.423C52.621,143.787,61.484,169.103,108.719,194.612z"/>
		<path style="fill:#FEC900;" d="M124.664,194.508c41.837,24.169,103.877,39.476,173.122,39.476c125.98,0,228.1-50.668,228.1-113.17
			c0-62.503-102.119-113.165-228.1-113.165c-115.952,0-211.705,42.924-226.199,98.5C64.787,132.454,67.787,159.787,124.664,194.508z
			"/>
	</g>
</g>
<g>
	<g>
		<path style="fill:#FFFFFF;" d="M498.848,76.722c-0.984-0.737-2.582-1.939-2.582-1.939c-26.816-20.106-87.477-53.844-192.48-53.844
			c-57.779,0-112.552,13.042-162.796,38.77C96.488,82.497,55.827,115.561,23.4,155.342c-1.458,1.791-5.398,6.912-7.124,9.361
			c-4.384,6.436-8.621,13.992-10.305,18.371l-2.449,6.406l0.871-0.039h454.996l0.381,0.004l9.701-28.492l-6.719-0.02l3.098-2.014
			c7.539-4.893,11.525-11.727,11.531-19.779v-0.135c0-0.074,0.004-0.145,0.004-0.203c0-2.26-0.623-4.654-1.846-7.125l-0.586-1.182
			l1.27-0.361l6.561-1.851l0.066-0.018l11.273-27.757h-0.131H473.85l-0.227-0.01l-1.396,2.485c0,0-0.297,0.538-0.291,0.529
			l-0.615,0.029c-0.205,0.01-0.424,0.016-0.668,0.016c-1.685,0-2.258-0.282-3.654-0.966c-3.771-1.85-8.168-3.512-20.353-3.512
			c-15.66,0-26.77,3.947-33.037,11.725l-1.877-1.078l0.428-1.118l2.443-6.378l-0.26,0.025h-6.561H339.65h-7.488h-0.908h-91.319
			h-0.979h-0.786h-2.2l1.324-1.752c1.836-2.438,2.811-5.253,2.811-8.133c0-9.084-9.391-16.204-21.378-16.204
			c-2.636,0-5.204,0.351-7.638,1.035l-0.813-2.019c13.419-7.193,27.272-13.166,41.178-17.767c26.914-8.926,55.48-13.27,87.338-13.27
			c78.6,0,118.693,20.715,150.322,43.093l5.129,3.636l0.072-0.142l4.674-13.934L498.848,76.722z M405.771,130.81l0.156-0.416
			c0.296,1.461,0.748,2.861,1.36,4.181l-0.066,0.04l-3.114,0.9l-0.134,0.05L405.771,130.81z M361.346,138.153l3.312-8.585
			l2.271-5.793l0.047-0.178l3.133,2.311l0.153,0.108l-3.43,8.762l-0.718,1.935c-0.396,0.555-2.621,1.336-4.802,1.554
			L361.346,138.153z M300.545,135.001l9.067-4.631l8.265-4.24l0.195,0.015h10.404l0.23-0.015l-5.422,13.912
			c-0.277,0.747-0.504,1.536-0.703,2.341l0.049-0.001l-0.116,0.306c-0.416,1.776-0.657,3.637-0.657,5.448
			c0,3.959,1.022,7.615,2.961,10.622l-0.178,0.025h-8.04h-0.21l5.672-14.907l0.452-1.188c0.024-0.102,0.042-0.205,0.067-0.305
			l-1.549,0.009l-14.018,0.064l-0.245-0.005l-4.847-5.501l-1.605-1.822L300.545,135.001z M228.586,133.319l2.729-7.188l0.213,0.015
			h12.889l0.148-0.015l4.735,5.472l2.142,2.464l-0.115,0.049l-13.75,6.982l-2.635,1.37h-0.192l-6.081-0.03l-3.241-0.02h-0.262
			L228.586,133.319z M177.412,143.831l-0.467,0.18l-0.176,0.465l-5.353,14.308h-0.113h-59.428h-0.292
			c6.484-7.437,11.262-12.548,18.001-19.375l0.193,0.016h58.94l0.5-0.021L177.412,143.831z M196.806,100.186l-6.738-0.021
			l-15.076-0.03l-0.222-0.003c7.115-5.225,14.323-10.089,21.517-14.517l0.217-0.133c-1.104,2.162-1.667,4.502-1.667,6.926
			c0,2.711,0.733,5.363,2.144,7.778H196.806z"/>
		<path style="fill:#0058A2;" d="M251.827,59.536c26.692-8.851,55.037-13.15,86.651-13.15c77.984,0,117.728,20.512,149.053,42.683
			c-0.005,0,6.354,4.508,6.354,4.508l1.207,0.854l0.471-1.404l5.417-16.228l0.247-0.752l-0.628-0.475l-3.336-2.499
			c-27.031-20.276-88.153-54.285-193.791-54.285c-58.131,0-113.237,13.126-163.796,39.011
			c-24.188,12.384-46.675,27.346-67.909,45.202c-15.645,13.131-43.105,39.494-57.616,60.507c-4.466,6.561-8.799,14.305-10.537,18.82
			c-0.005,0-3.022,7.857-3.022,7.857l-0.569,1.494h1.593h458.623h0.787l0.251-0.746l10.441-30.701l0.493-1.443h-2.699
			c6.309-5.105,9.74-11.955,9.74-19.578c0,0.035,0.004-0.074,0.004-0.074c0.008-0.09,0.008-0.188,0.008-0.293
			c0-2.23-0.509-4.541-1.517-6.894l6.404-1.826l0.204-0.496l12.094-29.764l0.612-1.508h-1.624h-22.803h-0.651l-0.312,0.567
			l-1.307,2.351l-0.069,0.144c-1.173,0-1.332-0.109-2.63-0.747c-4.03-1.975-8.68-3.74-21.335-3.74
			c-13.683,0-24.104,2.952-31.066,8.795l0.158-0.321l1.458-3.81l0.565-1.489h-1.589h-8.39h-68.131h-7.488h-0.907h-90.803
			l-0.239-0.02c1.366-2.381,2.078-4.998,2.078-7.674c0-10.316-10.351-18.396-23.565-18.396c-0.445,0-0.891,0.01-1.336,0.03
			l0.24-0.134C228.745,68.155,240.095,63.42,251.827,59.536z M211.088,77.203c2.434-0.684,5.002-1.035,7.638-1.035
			c11.987,0,21.378,7.12,21.378,16.204c0,2.88-0.975,5.695-2.811,8.133l-1.324,1.752h2.2h0.786h0.979h91.319h0.908h7.488h68.131
			h6.561l0.26-0.025l-2.443,6.378l-0.428,1.118l1.877,1.078c6.268-7.778,17.377-11.725,33.037-11.725
			c12.186,0,16.582,1.662,20.353,3.512c1.397,0.684,1.969,0.966,3.654,0.966c0.244,0,0.463-0.006,0.668-0.016l0.615-0.029
			c-0.006,0.009,0.291-0.529,0.291-0.529l1.396-2.485l0.227,0.01h20.143h0.131l-11.273,27.757l-0.066,0.018l-6.561,1.851
			l-1.27,0.361l0.586,1.182c1.223,2.471,1.846,4.865,1.846,7.125c0,0.059-0.004,0.129-0.004,0.203v0.135
			c-0.006,8.053-3.992,14.887-11.531,19.779l-3.098,2.014l6.719,0.02l-9.701,28.492l-0.381-0.004H4.393l-0.871,0.039l2.449-6.406
			c1.685-4.379,5.921-11.936,10.305-18.371c1.726-2.449,5.666-7.57,7.124-9.361c32.426-39.781,73.087-72.846,117.589-95.634
			c50.244-25.728,105.017-38.77,162.796-38.77c105.004,0,165.664,33.738,192.48,53.844c0,0,1.598,1.203,2.582,1.939l0.141,0.078
			l-4.674,13.934l-0.072,0.142l-5.129-3.636c-31.629-22.378-71.723-43.093-150.322-43.093c-31.857,0-60.424,4.344-87.338,13.27
			c-13.906,4.601-27.759,10.573-41.178,17.767L211.088,77.203z"/>
		<path style="fill:#0058A2;" d="M409.834,134.749c-1.406-2.518-2.119-5.387-2.119-8.539c0-0.238,0.01-0.5,0.024-0.748l-2.12-0.443
			l-1.899,5.02l-2.561,6.77l-0.771,2.033l2.093-0.594l6.698-1.904l1.332-0.381C410.511,135.965,409.834,134.749,409.834,134.749z
			 M407.223,134.62l-3.114,0.9l-0.134,0.051l1.797-4.756l0.156-0.416c0.296,1.461,0.748,2.861,1.36,4.182L407.223,134.62z"/>
		<path style="fill:#0058A2;" d="M372.226,124.793l-5.096-3.809l-1.155-0.871l-0.521,1.346l-2.838,7.326l-3.961,10.227l-0.543,1.416
			l1.505,0.08c2.539,0.139,7.019-0.773,8.275-2.506l0.084-0.113c0,0.01,0.048-0.123,0.048-0.123l0.857-2.186l3.713-9.506
			l0.301-0.775C372.893,125.293,372.226,124.793,372.226,124.793z M366.833,134.784l-0.718,1.934
			c-0.396,0.555-2.621,1.336-4.802,1.555l0.032-0.113l3.312-8.586l2.271-5.793l0.047-0.178l3.133,2.311l0.153,0.109L366.833,134.784
			z"/>
		<path style="fill:#0058A2;" d="M331.083,126.075l0.297-0.775c0.013,0.004-0.654-0.496-0.654-0.496l-0.447-0.33l-0.393-0.297
			l-0.289-0.213c-0.003,0-0.366,0-0.366,0h-11.64h-0.27l-0.229,0.119l-8.478,4.338l-10.553,5.402l-1.255,0.645l0.935,1.059
			l2.865,3.26l4.853,5.496l0.329,0.377l0.498-0.006l13.045-0.068l0.114,0.01l-5.68,14.897l-0.564,1.484h1.59h12.229h2.384
			l-1.547-1.805c-0.362-0.426-0.674-0.822-0.924-1.193c-2.385-3.443-2.884-7.248-2.884-9.836c0-2.482,0.457-5.08,1.286-7.312
			C325.331,140.844,331.083,126.075,331.083,126.075z M322.631,142.387l-0.116,0.307c-0.416,1.775-0.657,3.637-0.657,5.447
			c0,3.959,1.022,7.615,2.961,10.623l-0.178,0.025h-8.04h-0.21l5.672-14.908l0.452-1.188c0.024-0.102,0.042-0.205,0.067-0.306
			l-1.549,0.009l-14.018,0.064l-0.245-0.004l-4.847-5.502l-1.605-1.822l0.227-0.127l9.067-4.631l8.265-4.24l0.195,0.016h10.404
			l0.23-0.016l-5.422,13.912c-0.277,0.748-0.504,1.537-0.703,2.341L322.631,142.387z"/>
		<path style="fill:#0058A2;" d="M254.002,133.696l-3.045-3.518l-5.057-5.844l-0.327-0.377c0,0.006-0.499,0.006-0.499,0.006h-14.526
			h-0.757l-0.27,0.703l-2.98,7.887l-4.01,10.576l-0.561,1.479h1.582l5.105,0.025l6.48,0.031h0.268l0.238-0.119l2.926-1.484
			l15.104-7.674l1.246-0.639L254.002,133.696z M251.326,134.12l-13.75,6.982l-2.635,1.371h-0.192l-6.081-0.031l-3.241-0.02h-0.262
			l3.421-9.098l2.729-7.19l0.213,0.016h12.889l0.148-0.016l4.735,5.473l2.142,2.463L251.326,134.12z"/>
		<path style="fill:#0058A2;" d="M197.028,92.413c0-3.642,1.509-7.065,4.361-9.9l-1.326-1.722
			c-9.769,5.749-19.615,12.33-29.262,19.559l-2.622,1.963l32.98-0.015l-1.316-1.752C198,98.097,197.028,95.282,197.028,92.413z
			 M196.806,100.191l-6.738-0.021l-15.076-0.03l-0.222-0.003c7.115-5.225,14.323-10.089,21.517-14.517l0.217-0.133
			c-1.104,2.162-1.667,4.501-1.667,6.926c0,2.711,0.733,5.363,2.144,7.778H196.806z"/>
		<path style="fill:#0059A1;" d="M190.413,137.231h-0.989h-60.311h-0.455l-0.325,0.332c-6.765,6.859-13.499,14.127-20.015,21.602
			l-1.583,1.811h2.409h63.035h0.759l0.267-0.713l5.413-14.441l0.052-0.1l11.312-4.26l0.46-0.172l0.178-0.455l0.082-0.209
			l0.736-1.908l0.58-1.496C192.015,137.231,190.413,137.231,190.413,137.231z M177.412,143.836l-0.467,0.18l-0.176,0.465
			l-5.353,14.309h-0.113h-59.428h-0.292c6.484-7.438,11.262-12.549,18.001-19.375l0.193,0.016h58.94l0.5-0.021L177.412,143.836z"/>
		<g>
			<path style="fill:#0058A2;" d="M154.765,107.135c65.63-53.949,126.184-67.47,183.714-67.47
				c74.883,0,116.803,18.316,153.025,43.954l1.623-4.878c-32.553-24.421-93.603-52.909-189.654-52.909
				c-120.47,0-215.706,57.788-279.42,135.318h76.108c10.682-11.947,18.632-20.529,26.529-28.437h58.757l9.769-25.485
				L154.765,107.135z"/>
			<path style="fill:#0058A2;" d="M21.025,165.843c-4.413,6.208-9.277,14.679-10.993,19.121h446.063l6.517-19.132H21.425
				L21.025,165.843z"/>
			<ellipse style="fill:#0058A2;" cx="218.412" cy="92.579" rx="16.693" ry="11.508"/>
			<path style="fill:#0058A2;" d="M218.412,92.58"/>
			<path style="fill:#0058A2;" d="M469.938,127.168l9.11-2.588l7.794-19.177H476.04c-1.218,2.444-2.24,3.046-5.7,3.046
				c-7.325,0-4.475-4.482-24.009-4.482c-17.505,0-29.712,4.894-33.367,17.911c-2.855,12.21,5.689,17.499,15.467,17.91
				c8.541,0,15.046,0.405,15.046,6.916c0,6.922-6.505,6.516-6.505,6.516c-7.324,0-20.353-4.07-23.61-13.026l-9.115,2.588
				l-7.395,18.302h10.4c0.824-1.564,2.038-2.771,5.097-2.771c5.286,0,11.594,3.55,22.584,3.55c17.097,0,37.446-6.206,37.446-22.484
				c0.405-8.538-13.026-19.526-22.8-19.526c-9.761,0-10.577-1.628-10.165-4.483c0.404-2.845,8.95-8.14,20.344-2.439
				C468.716,117.812,469.938,121.068,469.938,127.168z"/>
			<polygon style="fill:#0058A2;" points="182.29,149.526 177.967,161.161 216.633,161.161 220.955,149.526 216.384,146.31 
				226.554,119.44 231.23,107.15 201.113,107.15 196.435,119.44 202.328,123.837 194.053,145.107 			"/>
			<polygon style="fill:#0058A2;" points="268.912,143.8 260.112,148.308 262.162,149.526 257.738,161.161 222.322,161.161 
				226.75,149.481 236.52,149.526 262.393,136.385 247.722,119.44 237.95,119.44 242.631,107.15 287.391,107.15 282.715,119.44 
				277.431,119.44 283.087,125.886 293.267,120.591 290.957,119.44 295.539,107.15 330.941,107.15 326.266,119.44 316.19,119.44 
				289.297,133.208 303.679,149.526 312.628,149.481 308.238,161.129 263.468,161.129 267.862,149.481 273.963,149.526 			"/>
			<path style="fill:#0058A2;" d="M402.777,119.44l4.691-12.29h-30.126l-4.677,12.29l5.888,4.397l-6.232,15.98
				c-2.846,6.918-22.296,8.164-18.63-0.787l7.572-19.591l4.685-12.29h-30.12l-4.676,12.29l5.897,4.397l-7.347,18.871
				c-2.443,6.516-0.883,18.736,11.729,18.736c6.916,0,12.514-2.119,18.616-6.195l3.44,5.915l28.632-0.025l4.83-12.45
				c-2.447-0.4-4.141-3.279-2.924-6.125L402.777,119.44z"/>
		</g>
	</g>
</g>
</svg>