<?xml version="1.0" encoding="utf-8"?>
<!-- Generator: Adobe Illustrator 21.0.0, SVG Export Plug-In . SVG Version: 6.00 Build 0)  -->
<svg version="1.1" id="Linjat" xmlns="http://www.w3.org/2000/svg" xmlns:xlink="http://www.w3.org/1999/xlink" x="0px" y="0px"
	 viewBox="0 0 196 70" style="enable-background:new 0 0 196 70;" xml:space="preserve">
<style type="text/css">
	.st0{fill:#0059A1;}
	.st1{fill:#FAB900;}
	.st2{fill:#FFFFFF;}
	.st3{fill:#0054A0;stroke:#0059A1;stroke-width:0.2137;}
</style>
<g>
	<path class="st0" d="M38.2,54.9H23.1h-0.4l0.2-0.4c0,0,0.8-2.1,0.8-2.1c0.5-1.2,1.6-3.3,2.8-5.1c0.2-0.2,0.5-0.6,0.7-1l0,0
		c-3-3.5-4.6-7.3-4.6-11.3C22.6,17,56.4,2.3,98,2.3c41.6,0,75.4,14.6,75.4,32.7c0,18-33.8,32.7-75.4,32.7c-24.3,0-45.8-5-59.6-12.7
		L38.2,54.9z"/>
	<path class="st1" d="M41.9,31c3.9-15,29.8-26.6,61.1-26.6c34,0,61.7,13.7,61.7,30.6c0,16.9-27.6,30.6-61.7,30.6
		c-18.7,0-35.5-4.1-46.8-10.7l0,0h90.8h0.2l0.1-0.2l2.8-8.3l0.1-0.4h-0.7c1.7-1.4,2.6-3.2,2.6-5.3c0,0,0,0,0,0c0,0,0-0.1,0-0.1
		c0-0.6-0.1-1.2-0.4-1.9l1.7-0.5l0.1-0.1l3.3-8l0.2-0.4h-0.4h-6.2h-0.2l-0.1,0.2l-0.4,0.6l0,0c-0.3,0-0.4,0-0.7-0.2
		c-1.1-0.5-2.3-1-5.8-1c-3.7,0-6.5,0.8-8.4,2.4l0-0.1l0.4-1l0.2-0.4h-0.4h-2.3h-18.4h-2h-0.2H87.6l-0.1,0c0.4-0.6,0.6-1.4,0.6-2.1
		c0-2.8-2.8-5-6.4-5c-0.1,0-0.2,0-0.4,0l0.1,0c3.1-1.6,6.2-2.8,9.3-3.9c7.2-2.4,14.9-3.6,23.4-3.6c21.1,0,31.8,5.5,40.3,11.5
		c0,0,1.7,1.2,1.7,1.2l0.3,0.2l0.1-0.4l1.5-4.4l0.1-0.2l-0.2-0.1l-0.9-0.7c-7.3-5.5-23.8-14.7-52.4-14.7c-15.7,0-30.6,3.5-44.3,10.5
		c-6.5,3.3-12.6,7.4-18.4,12.2L41.9,31z"/>
	<path class="st2" d="M41.9,54.9h10l0.1,0c11.9,6.6,29.7,10.8,49.5,10.8c35.9,0,65-13.8,65-30.8c0-17-29.1-30.8-65-30.8
		c-35.9,0-65,13.8-65,30.8c0,0.3,0,0.6,0,0.9L36.4,36c-2.5,2.4-4.9,5.1-7.2,7.7h-0.1C27.5,41,26.5,38,26.5,35
		c0-17.7,32-32.1,71.5-32.1c39.5,0,71.5,14.4,71.5,32.1c0,17.7-32,32.1-71.5,32.1c-22.7,0-42.9-4.7-56-12.1L41.9,54.9z"/>
	<path class="st2" d="M149.6,46.6l-2.6,7.7l-0.1,0h-123l-0.2,0l0.7-1.7c0.5-1.2,1.6-3.2,2.8-5c0.5-0.7,1.5-2,1.9-2.5
		c8.8-10.8,19.8-19.7,31.8-25.8c13.6-7,28.4-10.5,44-10.5c28.4,0,44.8,9.1,52,14.6c0,0,0.4,0.3,0.7,0.5l0,0l-1.3,3.8l0,0l-1.4-1
		c-8.5-6-19.4-11.6-40.6-11.6c-8.6,0-16.3,1.2-23.6,3.6c-3.8,1.2-7.5,2.9-11.1,4.8l0.2,0.5c0.7-0.2,1.4-0.3,2.1-0.3
		c3.2,0,5.8,1.9,5.8,4.4c0,0.8-0.3,1.5-0.8,2.2l-0.4,0.5h0.6h0.2h0.3h24.7h0.2h2h18.4h1.8l0.1,0l-0.7,1.7l-0.1,0.3l0.5,0.3
		c1.7-2.1,4.7-3.2,8.9-3.2c3.3,0,4.5,0.4,5.5,0.9c0.4,0.2,0.5,0.3,1,0.3c0.1,0,0.1,0,0.2,0l0.2,0c0,0,0.1-0.1,0.1-0.1l0.4-0.7l0.1,0
		h5.4h0l-3,7.5l0,0l-1.8,0.5l-0.3,0.1l0.2,0.3c0.3,0.7,0.5,1.3,0.5,1.9c0,0,0,0,0,0.1v0c0,2.2-1.1,4-3.1,5.3l-0.8,0.5L149.6,46.6z"
		/>
	<path class="st0" d="M133.5,39.5c-0.4-0.7-0.6-1.5-0.6-2.3c0-0.1,0-0.1,0-0.2l-0.6-0.1l-0.5,1.4l-0.7,1.8l-0.2,0.5l0.6-0.2l1.8-0.5
		l0.4-0.1C133.6,39.8,133.5,39.5,133.5,39.5z"/>
	<path class="st0" d="M119.9,41.1c0.7,0,1.9-0.2,2.2-0.7l0,0c0,0,0,0,0,0l0.2-0.6l1-2.6l0.1-0.2c0,0-0.2-0.1-0.2-0.1l-1.4-1
		l-0.3-0.2l-0.1,0.4l-0.8,2l-1.1,2.8l-0.1,0.4L119.9,41.1z"/>
	<path class="st0" d="M109,42.2l-1.5,4l-0.2,0.4h0.4h3.3h0.6l-0.4-0.5c-0.1-0.1-0.2-0.2-0.2-0.3c-0.6-0.9-0.8-2-0.8-2.7
		c0-0.7,0.1-1.4,0.3-2c0,0,1.6-4,1.6-4l0.1-0.2c0,0-0.2-0.1-0.2-0.1l-0.1-0.1l-0.1-0.1l-0.1-0.1c0,0-0.1,0-0.1,0h-3.1h-0.1l-0.1,0
		l-2.3,1.2l-2.9,1.5l-0.3,0.2l0.3,0.3l0.8,0.9l1.3,1.5l0.1,0.1l0.1,0L109,42.2L109,42.2z"/>
	<polygon class="st0" points="84.7,36.8 83.9,38.9 82.8,41.8 82.7,42.2 83.1,42.2 84.5,42.2 86.2,42.2 86.3,42.2 86.4,42.2 
		87.2,41.8 91.2,39.7 91.6,39.5 91.3,39.2 90.5,38.3 89.1,36.7 89.1,36.6 88.9,36.6 85,36.6 84.8,36.6 	"/>
	<path class="st0" d="M77.1,30.7l-0.4-0.5c-0.5-0.7-0.8-1.4-0.8-2.2c0-1,0.4-1.9,1.2-2.7l-0.4-0.5c-2.6,1.6-5.3,3.3-7.9,5.3
		l-0.7,0.5L77.1,30.7z"/>
	<path class="st0" d="M71,42.5l3.1-1.2l0.1,0l0-0.1l0-0.1l0.2-0.5l0.2-0.4c0,0-0.4,0-0.4,0h-0.3H57.6h-0.1l-0.1,0.1
		c-1.8,1.9-3.6,3.8-5.4,5.8l-0.4,0.5h0.7h17h0.2l0.1-0.2L71,42.5L71,42.5z"/>
	<g>
		<path class="st0" d="M64.5,32c17.7-14.6,34.1-18.2,49.7-18.2c20.2,0,31.6,5,41.4,11.9l0.4-1.3c-8.8-6.6-25.3-14.3-51.3-14.3
			c-32.6,0-58.3,15.6-75.5,36.6h20.6c2.9-3.2,5-5.5,7.2-7.7h15.9l2.6-6.9L64.5,32z"/>
		<path class="st0" d="M28.4,47.9c-1.2,1.7-2.5,4-3,5.2H146l1.8-5.2H28.5L28.4,47.9z"/>
		<ellipse class="st0" cx="81.7" cy="28.1" rx="4.5" ry="3.1"/>
		<path class="st3" d="M81.7,28.1"/>
		<path class="st0" d="M149.7,37.4l2.5-0.7l2.1-5.2h-2.9c-0.3,0.7-0.6,0.8-1.5,0.8c-2,0-1.2-1.2-6.5-1.2c-4.7,0-8,1.3-9,4.8
			c-0.8,3.3,1.5,4.7,4.2,4.8c2.3,0,4.1,0.1,4.1,1.9c0,1.9-1.8,1.8-1.8,1.8c-2,0-5.5-1.1-6.4-3.5l-2.5,0.7l-2,4.9h2.8
			c0.2-0.4,0.6-0.7,1.4-0.7c1.4,0,3.1,1,6.1,1c4.6,0,10.1-1.7,10.1-6.1c0.1-2.3-3.5-5.3-6.2-5.3c-2.6,0-2.9-0.4-2.7-1.2
			c0.1-0.8,2.4-2.2,5.5-0.7C149.4,34.9,149.7,35.8,149.7,37.4z"/>
		<polygon class="st0" points="72,43.5 70.8,46.6 81.2,46.6 82.4,43.5 81.2,42.6 83.9,35.3 85.2,32 77,32 75.8,35.3 77.4,36.5 
			75.1,42.3 		"/>
		<polygon class="st0" points="95.4,41.9 93,43.1 93.5,43.5 92.3,46.6 82.8,46.6 84,43.4 86.6,43.5 93.6,39.9 89.6,35.3 87,35.3 
			88.3,32 100.4,32 99.1,35.3 97.7,35.3 99.2,37.1 101.9,35.6 101.3,35.3 102.6,32 112.1,32 110.9,35.3 108.1,35.3 100.9,39 
			104.8,43.5 107.2,43.4 106,46.6 93.9,46.6 95.1,43.4 96.7,43.5 		"/>
		<path class="st0" d="M131.5,35.3l1.3-3.3h-8.1l-1.3,3.3l1.6,1.2l-1.7,4.3c-0.8,1.9-6,2.2-5-0.2l2-5.3l1.3-3.3h-8.1l-1.3,3.3
			l1.6,1.2l-2,5.1c-0.7,1.8-0.2,5.1,3.2,5.1c1.9,0,3.4-0.6,5-1.7l0.9,1.6l7.7,0l1.3-3.4c-0.7-0.1-1.1-0.9-0.8-1.7L131.5,35.3z"/>
	</g>
	<path class="st1" d="M132.4,38.3c0.1,0.4,0.2,0.8,0.4,1.1l0,0l-0.8,0.2l0,0l0.5-1.3L132.4,38.3z"/>
	<path class="st1" d="M120.3,40.4l0.9-2.3l0.6-1.6l0,0l0.8,0.6l0,0l-0.9,2.4l-0.2,0.5C121.5,40.2,120.9,40.4,120.3,40.4L120.3,40.4z
		"/>
	<path class="st1" d="M108.7,37.2h2.8l0.1,0l-1.5,3.8c-0.2,0.7-0.4,1.4-0.4,2.2c0,1.1,0.3,2.1,0.8,2.9l0,0h-2.2h-0.1l1.5-4l0.2-0.4
		l-0.4,0l-3.8,0l-0.1,0l-1.3-1.5l-0.4-0.5l0.1,0l2.5-1.3L108.7,37.2L108.7,37.2z"/>
	<polygon class="st1" points="85.3,37.2 88.7,37.2 88.8,37.2 90.1,38.7 90.6,39.3 90.6,39.3 86.9,41.2 86.2,41.6 86.1,41.6 
		84.5,41.6 83.6,41.6 83.5,41.6 84.5,39.1 85.2,37.2 	"/>
	<path class="st1" d="M69.9,30.2c1.9-1.4,3.9-2.7,5.8-3.9l0.1,0c-0.3,0.6-0.5,1.2-0.5,1.9c0,0.7,0.2,1.4,0.6,2.1h0l-1.8,0L69.9,30.2
		L69.9,30.2z"/>
	<path class="st1" d="M73.8,40.8L70.6,42l-0.1,0l0,0.1L69,46h0H52.9h-0.1c1.8-2,3-3.4,4.9-5.2l0.1,0h15.9L73.8,40.8z"/>
</g>
</svg>
